Coordinates
version=1
nRows=16
nColumns=42
inDegrees=yes

Units are S.I. units (second, meters, Newtons, ...)
If the header above contains a line with 'inDegrees', this indicates whether rotational values are in degrees (yes) or radians (no).

endheader
time	pelvis_tilt	pelvis_list	pelvis_rotation	pelvis_tx	pelvis_ty	pelvis_tz	hip_flexion_r	hip_adduction_r	hip_rotation_r	knee_angle_r	knee_adduction_r	knee_angle_r_beta	ankle_angle_r	subtalar_angle_r	mtp_angle_r	hip_flexion_l	hip_adduction_l	hip_rotation_l	knee_angle_l	knee_adduction_l	knee_angle_l_beta	ankle_angle_l	subtalar_angle_l	mtp_angle_l	lumbar_extension	lumbar_bending	lumbar_rotation	arm_flex_r	arm_add_r	arm_rot_r	elbow_flex_r	pro_sup_r	wrist_flex_r	wrist_dev_r	arm_flex_l	arm_add_l	arm_rot_l	elbow_flex_l	pro_sup_l	wrist_flex_l	wrist_dev_l
      1.65000000	     14.36468300	      3.40152860	      6.69485036	     -0.40672677	      0.88087845	     -0.03246012	     11.92066668	     -3.08356891	    -16.45576688	     33.54898222	     -1.01299213	      0.58554020	     10.66329113	     -8.37529639	     -7.55837825	    -20.87122333	     -3.76547029	    -19.07420701	     44.08784570	     -8.73989202	      0.76947807	      8.91617938	     28.04841208	     -7.55837825	    -31.73168012	     -0.99708511	     -6.52393562	     -4.11085985	     -6.24079567	    -44.58266718	     21.15205750	     90.00000001	      0.00000000	      0.00000000	     10.47773307	     -7.58596737	    -31.34010024	     34.03729434	     90.00000001	      0.00000000	      0.00000000
      1.66000000	     14.45400366	      3.15440284	      6.44853240	     -0.39730539	      0.88191050	     -0.03057707	     11.30593192	     -2.44801080	    -16.92131686	     33.63433021	     -1.57196913	      0.58702980	     11.45071633	     -7.41667116	     -7.55635791	    -20.10774990	     -3.87332007	    -17.98378146	     46.17789452	     -8.63117134	      0.80595630	      7.58366146	     24.27070702	     -7.55635791	    -31.79317214	     -0.83033982	     -6.18707617	     -3.70932129	     -6.43680381	    -43.82409082	     21.40936980	     90.00000001	      0.00000000	      0.00000000	     10.03860126	     -7.36445777	    -31.93336359	     33.83692806	     90.00000001	      0.00000000	      0.00000000
      1.67000000	     14.61142257	      3.01770451	      6.25311165	     -0.38803496	      0.88305230	     -0.02906879	     10.51562023	     -2.08827724	    -17.50690846	     33.64350904	     -1.87869390	      0.58719000	     12.46158649	     -6.55838067	     -7.55438585	    -19.28023870	     -3.88481882	    -17.40563925	     48.27650335	     -8.86600221	      0.84258393	      6.62803040	     21.47732590	     -7.55438585	    -31.95854232	     -0.70688564	     -5.96480663	     -3.26844035	     -6.64119268	    -43.06242736	     21.76048625	     90.00000001	      0.00000000	      0.00000000	      9.56336656	     -7.16861840	    -32.21722669	     33.65869585	     90.00000001	      0.00000000	      0.00000000
      1.68000000	     14.78660801	      2.90284542	      6.06006523	     -0.37894296	      0.88425427	     -0.02745338	      9.70224554	     -1.71212702	    -18.30378384	     33.58436189	     -2.38751284	      0.58615769	     13.37631725	     -5.33297417	     -7.55217090	    -18.43558383	     -3.86651970	    -16.45948472	     50.34039221	     -8.74068905	      0.87860559	      5.98813430	     18.02108968	     -7.55217090	    -32.15720315	     -0.62723991	     -5.72034838	     -2.83133567	     -6.83049964	    -42.02351435	     22.12951534	     90.00000001	      0.00000000	      0.00000000	      9.17554836	     -6.98943649	    -32.59247429	     33.43616744	     90.00000001	      0.00000000	      0.00000000
      1.69000000	     15.00258727	      2.85503277	      5.91829954	     -0.37005200	      0.88556966	     -0.02604149	      8.80885978	     -1.48296856	    -19.11362576	     33.49934674	     -2.76764102	      0.58467390	     14.30080791	     -4.06507912	     -7.54978169	    -17.56319706	     -3.73342495	    -15.50669139	     52.30830411	     -8.65419138	      0.91295213	      5.64974103	     14.53612862	     -7.54978169	    -32.43173547	     -0.57720315	     -5.54970223	     -2.39396596	     -7.01849367	    -40.78871607	     22.58145816	     90.00000001	      0.00000000	      0.00000000	      8.81582822	     -6.82950734	    -32.93686770	     33.21120166	     90.00000001	      0.00000000	      0.00000000
      1.70000000	     15.36001309	      3.01000196	      5.57117162	     -0.36129369	      0.88716181	     -0.02435217	      7.74252484	     -1.45612692	    -19.27822923	     33.44099603	     -2.86242350	      0.58365549	     14.70481530	     -3.82619623	     -7.54912091	    -16.83127345	     -3.35932288	    -15.47163563	     53.99267804	     -9.10214315	      0.94235000	      6.10662369	     13.41528876	     -7.54912091	    -32.89611833	     -0.83528598	     -5.27923823	     -1.78414027	     -7.11154832	    -40.44452956	     22.97211741	     90.00000001	      0.00000000	      0.00000000	      8.46743429	     -6.74373463	    -32.95635199	     33.08690219	     90.00000001	      0.00000000	      0.00000000
      1.71000000	     15.42760910	      2.63043896	      5.64297927	     -0.35277244	      0.88819941	     -0.02310636	      6.87462168	     -0.80246651	    -19.89524281	     32.95340998	     -3.11439105	      0.57514550	     15.78470938	     -2.70316719	     -7.54733447	    -15.54079752	     -3.70497881	    -14.26437251	     56.05337703	     -8.60409148	      0.97831599	      6.22518541	      8.66023373	     -7.54733447	    -32.98151080	     -0.38338090	     -5.12387193	     -1.28914592	     -7.34102534	    -38.96008225	     23.47834196	     90.00000001	      0.00000000	      0.00000000	      8.12881921	     -6.54134055	    -33.21885508	     32.78636836	     90.00000001	      0.00000000	      0.00000000
      1.72000000	     15.73492977	      2.74540264	      5.58282203	     -0.34450602	      0.88985575	     -0.02194463	      5.78754740	     -0.79870967	    -20.37049494	     32.71423867	     -3.20110543	      0.57097118	     16.37384604	     -1.81213989	     -7.54494747	    -14.60194471	     -3.34089412	    -12.81157184	     57.68511032	     -7.99842766	      1.00679510	      6.10014087	      4.37897389	     -7.54494747	    -33.43334349	     -0.45829546	     -5.07925429	     -0.86795569	     -7.55287849	    -36.87963358	     24.13838192	     90.00000001	      0.00000000	      0.00000000	      7.90415613	     -6.43653897	    -33.55349852	     32.52706225	     90.00000001	      0.00000000	      0.00000000
      1.73000000	     16.07499387	      2.91321361	      5.30108013	     -0.33621634	      0.89147144	     -0.02043609	      4.71073194	     -0.82659752	    -20.32199163	     32.57592037	     -3.14905538	      0.56855707	     16.65120449	     -1.67874056	     -7.54435944	    -13.66892392	     -2.96778665	    -12.81556113	     59.00834868	     -8.28853161	      1.02988997	      6.93527696	      3.41777208	     -7.54435944	    -33.90202191	     -0.70911905	     -4.83685005	     -0.16558635	     -7.60778005	    -36.49704259	     24.57492508	     90.00000001	      0.00000000	      0.00000000	      7.62757994	     -6.37804920	    -33.52887531	     32.41274973	     90.00000001	      0.00000000	      0.00000000
      1.74000000	     16.27215462	      2.80522254	      5.40311167	     -0.32837856	      0.89294929	     -0.01942328	      3.59609706	     -0.52093878	    -20.12952062	     31.99065193	     -2.82358576	      0.55834221	     17.19943079	     -1.61891922	     -7.54087690	    -12.43936729	     -2.89297342	    -11.04197429	     60.47986391	     -7.31111275	      1.05557276	      6.94411074	     -1.72349812	     -7.54087690	    -34.23277918	     -0.51923570	     -4.81880544	      0.17022146	     -7.94315989	    -33.39928234	     25.41334946	     90.00000001	      0.00000000	      0.00000000	      7.44724622	     -6.24123120	    -33.80234058	     32.11298840	     90.00000001	      0.00000000	      0.00000000
      1.75000000	     16.54970071	      2.87571253	      5.26920221	     -0.32040354	      0.89445717	     -0.01811722	      2.50714157	     -0.42780506	    -19.93692980	     31.64189166	     -2.64067440	      0.55225519	     17.55809205	     -1.52209470	     -7.54021604	    -11.31375180	     -2.63735676	    -10.80182364	     61.54586768	     -7.40719935	      1.07417803	      8.04474893	     -2.86098882	     -7.54021604	    -34.63234015	     -0.62642839	     -4.64563930	      0.91376619	     -8.01277336	    -32.94317251	     25.87510159	     90.00000001	      0.00000000	      0.00000000	      7.22956526	     -6.16919083	    -33.74742241	     31.94440108	     90.00000001	      0.00000000	      0.00000000
      1.76000000	     16.83520860	      2.98093128	      5.05416827	     -0.31265113	      0.89595502	     -0.01665721	      1.46821034	     -0.34247244	    -19.71843602	     31.34978524	     -2.56728274	      0.54715697	     17.79587741	     -1.43150508	     -7.53967353	    -10.16407429	     -2.35930658	    -10.42183006	     62.49478829	     -7.23535439	      1.09073982	      8.79164169	     -3.77395457	     -7.53967353	    -35.06715637	     -0.81614996	     -4.37940513	      1.68582085	     -8.09569894	    -32.44727395	     26.35158172	     90.00000001	      0.00000000	      0.00000000	      7.06390517	     -6.13590106	    -33.69451460	     31.82619312	     90.00000001	      0.00000000	      0.00000000
      1.77000000	     16.98915974	      2.80762009	      5.21331974	     -0.30539099	      0.89739310	     -0.01572574	      0.33125045	      0.11563426	    -19.10127312	     30.49411537	     -2.10873221	      0.53222272	     17.83802299	     -2.21947303	     -7.53696397	     -8.81493602	     -2.33412341	     -7.87486283	     63.42675743	     -5.47005866	      1.10700575	      8.34177017	     -8.35868663	     -7.53696397	    -35.39095148	     -0.55814295	     -4.33143190	      2.04412682	     -8.50377466	    -28.95279186	     27.29587820	     90.00000001	      0.00000000	      0.00000000	      6.97404701	     -6.02491306	    -33.83332955	     31.54257537	     90.00000001	      0.00000000	      0.00000000
      1.78000000	     17.18965738	      2.83999485	      5.09412903	     -0.29793492	      0.89871830	     -0.01448595	     -0.67004559	      0.24625206	    -18.82714150	     30.04947205	     -1.89947463	      0.52446223	     18.18617944	     -2.11080805	     -7.53604921	     -7.55316041	     -2.11198386	     -7.01439177	     63.96605956	     -4.90345899	      1.11641835	      9.07781743	     -9.14631209	     -7.53604921	    -35.74346699	     -0.64176699	     -4.11463392	      2.81133243	     -8.62386037	    -28.16886761	     27.80764626	     90.00000001	      0.00000000	      0.00000000	      6.85927730	     -5.95442302	    -33.76436084	     31.35656670	     90.00000001	      0.00000000	      0.00000000
      1.79000000	     17.32719539	      2.82925849	      5.07514776	     -0.29075294	      0.89993554	     -0.01337605	     -1.62155515	      0.50333768	    -18.68668883	     29.46916095	     -1.85080344	      0.51433389	     18.24552845	     -2.17766385	     -7.53426851	     -6.18637702	     -1.91208800	     -5.34741188	     64.40953054	     -3.68758819	      1.12415838	      9.12112031	    -10.75453293	     -7.53426851	    -36.03473132	     -0.65227438	     -3.95361069	      3.43276959	     -8.88245581	    -26.19608860	     28.54530786	     90.00000001	      0.00000000	      0.00000000	      6.77475851	     -5.91337327	    -33.75983822	     31.22553063	     90.00000001	      0.00000000	      0.00000000
      1.80000000	     17.40304073	      2.94324399	      4.87090886	     -0.28346437	      0.90092983	     -0.01214480	     -2.40833971	      0.54177689	    -18.58199439	     29.11413403	     -1.85044889	      0.50813750	     18.51824191	     -2.01973084	     -7.53369945	     -4.78655480	     -1.50287319	     -4.73156711	     64.53736419	     -3.33475498	      1.12638950	      9.61096097	    -10.92751830	     -7.53369945	    -36.24422086	     -0.88332160	     -3.69279786	      4.24721896	     -8.95717036	    -25.66987273	     29.03689194	     90.00000001	      0.00000000	      0.00000000	      6.65497645	     -5.84922621	    -33.67768648	     31.13674516	     90.00000001	      0.00000000	      0.00000000
